<svg width="49" height="49" viewBox="0 0 49 49" fill="none" xmlns="http://www.w3.org/2000/svg">
<g clip-path="url(#clip0)">
<path d="M9.63872 26.2987C8.38718 28.7589 9.80818 29.9349 13.0503 31.9439C15.8066 33.6466 19.6143 34.2693 22.0602 34.5184C21.0578 35.4821 25.6515 31.0639 12.4215 43.7896C9.61626 46.4785 14.1324 50.7926 16.9356 48.1609L24.5245 40.8415C27.4298 43.6365 30.2146 46.3152 32.1134 48.1711C34.9186 50.813 39.4328 46.5357 36.6581 43.7998C36.4499 43.6018 26.3743 33.9366 26.9888 34.5286C29.4653 34.2796 33.2159 33.6201 35.9395 31.9541L35.9374 31.9521C39.1796 29.9328 40.6006 28.7589 39.3674 26.2987C38.6222 24.9022 36.6132 23.7343 33.9386 25.7536C33.9386 25.7536 30.3269 28.52 24.5021 28.52C18.6751 28.52 15.0655 25.7536 15.0655 25.7536C12.3929 23.7241 10.3758 24.9022 9.63872 26.2987Z" fill="white"/>
<path d="M24.498 24.7899C31.5989 24.7899 37.3972 19.2407 37.3972 12.4092C37.3972 5.54925 31.5989 0 24.498 0C17.395 0 11.5967 5.54925 11.5967 12.4092C11.5967 19.2407 17.395 24.7899 24.498 24.7899ZM24.498 6.28629C27.9872 6.28629 30.8333 9.02417 30.8333 12.4092C30.8333 15.7657 27.9872 18.5036 24.498 18.5036C21.0088 18.5036 18.1627 15.7657 18.1627 12.4092C18.1606 9.02212 21.0067 6.28629 24.498 6.28629Z" fill="white"/>
</g>
<defs>
<clipPath id="clip0">
<rect width="49" height="49" fill="white"/>
</clipPath>
</defs>
</svg>
