<svg width="32" height="32" viewBox="0 0 32 32" fill="none" xmlns="http://www.w3.org/2000/svg">
<g clip-path="url(#clip0)">
<path d="M29.141 20.8581C27.1893 20.8581 25.2777 20.5533 23.466 19.9555C22.5817 19.6508 21.5776 19.8856 20.9965 20.4784L17.4047 23.191C13.2833 20.9913 10.6456 18.3553 8.47589 14.2639L11.1152 10.757C11.7796 10.0926 12.0178 9.12006 11.733 8.20922C11.1302 6.38582 10.8238 4.47251 10.8238 2.52423C10.8238 1.14708 9.70317 0.0264282 8.32602 0.0264282H2.4978C1.12065 0.0264282 0 1.14708 0 2.52423C0 18.5917 13.0735 31.6652 29.141 31.6652C30.5181 31.6652 31.6388 30.5445 31.6388 29.1674V23.3559C31.6388 21.9787 30.5181 20.8581 29.141 20.8581Z" fill="white"/>
</g>
<defs>
<clipPath id="clip0">
<rect width="31.6388" height="31.6388" fill="white" transform="translate(0 0.0264282)"/>
</clipPath>
</defs>
</svg>
