<svg width="43" height="43" viewBox="0 0 43 43" fill="none" xmlns="http://www.w3.org/2000/svg">
<path d="M40.3394 10.7828C37.8854 10.7828 35.6211 9.96981 33.8029 8.59834C31.7175 7.02616 30.2193 4.71994 29.6902 2.06184C29.5591 1.40508 29.4886 0.727327 29.4819 0.0327759H22.4717V19.1879L22.4633 29.6801C22.4633 32.4852 20.6366 34.8636 18.1045 35.7001C17.3697 35.9428 16.576 36.0579 15.7496 36.0125C14.6948 35.9546 13.7063 35.6363 12.8471 35.1223C11.0188 34.0288 9.77915 32.0451 9.74555 29.7758C9.69264 26.2292 12.5599 23.3376 16.104 23.3376C16.8036 23.3376 17.4755 23.4518 18.1045 23.6593V18.4237V16.5416C17.441 16.4433 16.7658 16.3921 16.083 16.3921C12.2038 16.3921 8.57565 18.0046 5.98221 20.9096C4.02202 23.105 2.84624 25.9058 2.66483 28.8428C2.42715 32.701 3.83893 36.3686 6.57682 39.0746C6.97911 39.4718 7.40155 39.8405 7.84331 40.1807C10.1907 41.9872 13.0604 42.9664 16.083 42.9664C16.7658 42.9664 17.441 42.916 18.1045 42.8178C20.9281 42.3995 23.5333 41.107 25.5892 39.0746C28.1155 36.5777 29.5113 33.2629 29.5264 29.7347L29.4903 14.0666C30.6955 14.9963 32.0132 15.7656 33.4275 16.3627C35.627 17.2907 37.9593 17.761 40.3595 17.7602V12.6699V10.7811C40.3612 10.7828 40.3411 10.7828 40.3394 10.7828Z" fill="white"/>
</svg>
