<svg width="52" height="52" viewBox="0 0 52 52" fill="none" xmlns="http://www.w3.org/2000/svg">
<g clip-path="url(#clip0)">
<path d="M43.1492 28.2273C42.3085 27.1656 42.549 26.6933 43.1492 25.7443C43.16 25.7335 50.0998 16.1438 50.8148 12.8916L50.8192 12.8895C51.1745 11.7043 50.8192 10.8333 49.101 10.8333H43.4157C41.9683 10.8333 41.301 11.5808 40.9435 12.4171C40.9435 12.4171 38.0488 19.3461 33.9538 23.8376C32.6322 25.1355 32.0212 25.5515 31.2997 25.5515C30.9443 25.5515 30.3918 25.1355 30.3918 23.9503V12.8895C30.3918 11.4681 29.9867 10.8333 28.7885 10.8333H19.8488C18.941 10.8333 18.4015 11.4963 18.4015 12.1138C18.4015 13.4615 20.449 13.7713 20.6613 17.563V25.7898C20.6613 27.5925 20.3342 27.924 19.6083 27.924C17.6757 27.924 12.9848 20.9668 10.205 13.0043C9.64383 11.4595 9.09566 10.8355 7.63749 10.8355H1.94999C0.327159 10.8355 -7.62939e-06 11.583 -7.62939e-06 12.4193C-7.62939e-06 13.897 1.93266 21.2441 8.98732 30.9508C13.689 37.5765 20.3103 41.1667 26.3337 41.1667C29.9542 41.1667 30.3962 40.3693 30.3962 38.9978C30.3962 32.6668 30.069 32.0688 31.8825 32.0688C32.7232 32.0688 34.1705 32.4848 37.5505 35.6807C41.4137 39.4702 42.0485 41.1667 44.2108 41.1667H49.8962C51.5168 41.1667 52.338 40.3693 51.8657 38.7963C50.7845 35.4878 43.4785 28.6823 43.1492 28.2273Z" fill="white"/>
</g>
<defs>
<clipPath id="clip0">
<rect width="52" height="52" fill="white"/>
</clipPath>
</defs>
</svg>
