<svg width="35" height="35" viewBox="0 0 35 35" fill="none" xmlns="http://www.w3.org/2000/svg">
<path d="M35 17.5C35 7.82795 27.1731 0 17.5 0C7.82795 0 0 7.82688 0 17.5C0 27.0863 7.76146 35 17.5 35C27.1985 35 35 27.1304 35 17.5ZM17.5 2.05078C26.0188 2.05078 32.9492 8.98125 32.9492 17.5C32.9492 20.6162 32.0224 23.6115 30.3035 26.1485C23.4013 18.7241 11.6112 18.7107 4.6965 26.1485C2.97764 23.6115 2.05078 20.6162 2.05078 17.5C2.05078 8.98125 8.98125 2.05078 17.5 2.05078ZM5.97557 27.7881C12.1124 20.9046 22.8892 20.9062 29.0242 27.7881C22.8667 34.6769 12.1357 34.679 5.97557 27.7881Z" fill="white"/>
<path d="M17.5 18.5254C20.8923 18.5254 23.6523 15.7654 23.6523 12.373V10.3223C23.6523 6.92993 20.8923 4.16992 17.5 4.16992C14.1077 4.16992 11.3477 6.92993 11.3477 10.3223V12.373C11.3477 15.7654 14.1077 18.5254 17.5 18.5254ZM13.3984 10.3223C13.3984 8.06053 15.2383 6.2207 17.5 6.2207C19.7617 6.2207 21.6016 8.06053 21.6016 10.3223V12.373C21.6016 14.6348 19.7617 16.4746 17.5 16.4746C15.2383 16.4746 13.3984 14.6348 13.3984 12.373V10.3223Z" fill="white"/>
</svg>
